<?xml version="1.0" encoding="UTF-8"?>
<!DOCTYPE svg PUBLIC "-//W3C//DTD SVG 1.1//EN" "http://www.w3.org/Graphics/SVG/1.1/DTD/svg11.dtd">
<svg xmlns="http://www.w3.org/2000/svg" version="1.1" width="350px" height="350px" style="shape-rendering:geometricPrecision; text-rendering:geometricPrecision; image-rendering:optimizeQuality; fill-rule:evenodd; clip-rule:evenodd" xmlns:xlink="http://www.w3.org/1999/xlink">
<g><path style="opacity:0.917" fill="#000000" d="M 127.5,20.5 C 166.246,16.6268 201.58,26.1268 233.5,49C 241.696,55.5958 248.863,63.0958 255,71.5C 259.333,78.8333 263.667,86.1667 268,93.5C 269.394,99.7622 271.394,105.762 274,111.5C 280.529,141.077 277.029,169.244 263.5,196C 263.833,196.333 264.167,196.667 264.5,197C 258.48,207.691 251.647,217.858 244,227.5C 242.745,228.211 241.579,229.044 240.5,230C 272.194,253.515 303.527,277.515 334.5,302C 343.007,309.193 346.007,318.36 343.5,329.5C 333.866,330.573 324.866,329.073 316.5,325C 284.978,299.31 253.311,273.81 221.5,248.5C 178.492,282.135 130.492,291.635 77.5,277C 52.4692,268.496 32.1359,253.663 16.5,232.5C 25.4292,230.73 34.4292,230.23 43.5,231C 74.818,257.639 110.151,266.305 149.5,257C 189.806,246.617 219.473,222.617 238.5,185C 241.26,176.002 243.926,166.668 246.5,157C 250.835,114.74 235.168,81.7397 199.5,58C 156.642,36.3958 113.976,37.7291 71.5,62C 63.652,67.7586 55.9854,73.7586 48.5,80C 41.0167,88.6381 34.0167,97.6381 27.5,107C 20.2471,109.205 12.9138,110.038 5.5,109.5C 23.1473,74.022 50.1473,48.1887 86.5,32C 99.6378,27.2521 113.304,23.4187 127.5,20.5 Z"/></g>
<g><path style="opacity:0.945" fill="#650087" d="M 91.5,121.5 C 89.0607,122.053 86.7273,122.053 84.5,121.5C 83.5224,121.977 82.6891,122.643 82,123.5C 81.6667,122.833 81.3333,122.167 81,121.5C 78.6192,121.545 76.1192,122.211 73.5,123.5C 71.102,123.101 68.602,123.101 66,123.5C 65.2917,122.619 64.4584,121.953 63.5,121.5C 87.1086,82.5318 121.775,65.6985 167.5,71C 177.474,72.8183 185.807,77.4849 192.5,85C 188.752,91.8324 184.752,98.4991 180.5,105C 179.5,105.667 178.5,105.667 177.5,105C 168.591,97.0282 158.091,93.1949 146,93.5C 123.816,95.2222 105.649,104.556 91.5,121.5 Z"/></g>
<g><path style="opacity:0.942" fill="#62048a" d="M 63.5,121.5 C 64.4584,121.953 65.2917,122.619 66,123.5C 68.602,123.101 71.102,123.101 73.5,123.5C 76.1192,122.211 78.6192,121.545 81,121.5C 81.3333,122.167 81.6667,122.833 82,123.5C 82.6891,122.643 83.5224,121.977 84.5,121.5C 86.7273,122.053 89.0607,122.053 91.5,121.5C 90.3307,124.511 88.664,127.178 86.5,129.5C 81.4763,130.82 76.643,130.82 72,129.5C 71.3109,130.357 70.4776,131.023 69.5,131.5C 66.7267,130.92 63.8933,130.587 61,130.5C 60.5831,131.756 59.7498,132.423 58.5,132.5C 59.3764,128.418 61.0431,124.751 63.5,121.5 Z"/></g>
<g><path style="opacity:0.943" fill="#5f098d" d="M 86.5,129.5 C 84.6461,133.053 82.9795,136.72 81.5,140.5C 78.8561,138.966 76.5228,139.299 74.5,141.5C 73.828,140.733 72.9947,140.066 72,139.5C 68.5767,139.829 65.0767,140.495 61.5,141.5C 61.5654,141.938 61.3988,142.272 61,142.5C 60.6667,141.833 60.3333,141.167 60,140.5C 59,141.833 58,141.833 57,140.5C 56.2917,141.381 55.4584,142.047 54.5,142.5C 55.2667,138.851 56.6001,135.518 58.5,132.5C 59.7498,132.423 60.5831,131.756 61,130.5C 63.8933,130.587 66.7267,130.92 69.5,131.5C 70.4776,131.023 71.3109,130.357 72,129.5C 76.643,130.82 81.4763,130.82 86.5,129.5 Z"/></g>
<g><path style="opacity:0.721" fill="#5a1192" d="M 193.5,141.5 C 187.256,142.221 181.09,142.221 175,141.5C 174.333,142.167 173.667,142.833 173,143.5C 169.572,142.743 166.238,142.41 163,142.5C 156.192,144.034 149.359,144.701 142.5,144.5C 142.421,143.07 142.754,141.736 143.5,140.5C 151.833,140.167 160.167,139.833 168.5,139.5C 177.194,139.502 185.528,140.169 193.5,141.5 Z"/></g>
<g><path style="opacity:1" fill="#5d0c8f" d="M 74.5,141.5 C 69.9265,142.262 65.5931,142.262 61.5,141.5C 65.0767,140.495 68.5767,139.829 72,139.5C 72.9947,140.066 73.828,140.733 74.5,141.5 Z"/></g>
<g><path style="opacity:0.951" fill="#5b0f91" d="M 81.5,140.5 C 80.8333,143.167 80.1667,145.833 79.5,148.5C 70.5814,150.43 61.5814,151.096 52.5,150.5C 53.2906,147.885 53.9573,145.218 54.5,142.5C 55.4584,142.047 56.2917,141.381 57,140.5C 58,141.833 59,141.833 60,140.5C 60.3333,141.167 60.6667,141.833 61,142.5C 61.3988,142.272 61.5654,141.938 61.5,141.5C 65.5931,142.262 69.9265,142.262 74.5,141.5C 76.5228,139.299 78.8561,138.966 81.5,140.5 Z"/></g>
<g><path style="opacity:0.974" fill="#581494" d="M 193.5,141.5 C 193.567,142.959 193.234,144.292 192.5,145.5C 191.85,145.196 191.183,144.863 190.5,144.5C 186.966,145.131 183.466,145.798 180,146.5C 178.467,146.056 176.967,145.723 175.5,145.5C 173.362,146.243 171.196,146.91 169,147.5C 167.348,147.14 165.682,146.807 164,146.5C 156.15,147.722 148.65,148.388 141.5,148.5C 141.833,147.167 142.167,145.833 142.5,144.5C 149.359,144.701 156.192,144.034 163,142.5C 166.238,142.41 169.572,142.743 173,143.5C 173.667,142.833 174.333,142.167 175,141.5C 181.09,142.221 187.256,142.221 193.5,141.5 Z"/></g>
<g><path style="opacity:0.982" fill="#561796" d="M 192.5,145.5 C 192.5,146.5 192.5,147.5 192.5,148.5C 188.727,148.53 184.894,148.53 181,148.5C 179.333,149.167 177.667,149.833 176,150.5C 171.658,150.133 166.992,149.8 162,149.5C 159.667,150.167 157.333,150.833 155,151.5C 152.974,150.981 150.974,150.647 149,150.5C 146.876,151.227 144.709,151.894 142.5,152.5C 141.893,152.376 141.56,152.043 141.5,151.5C 141.5,150.5 141.5,149.5 141.5,148.5C 148.65,148.388 156.15,147.722 164,146.5C 165.682,146.807 167.348,147.14 169,147.5C 171.196,146.91 173.362,146.243 175.5,145.5C 176.967,145.723 178.467,146.056 180,146.5C 183.466,145.798 186.966,145.131 190.5,144.5C 191.183,144.863 191.85,145.196 192.5,145.5 Z"/></g>
<g><path style="opacity:0.941" fill="#581494" d="M 79.5,148.5 C 79.5674,149.959 79.2341,151.292 78.5,152.5C 70.026,152.839 61.3593,153.506 52.5,154.5C 52.5,153.167 52.5,151.833 52.5,150.5C 61.5814,151.096 70.5814,150.43 79.5,148.5 Z"/></g>
<g><path style="opacity:0.968" fill="#531b99" d="M 192.5,148.5 C 191.957,151.218 191.291,153.885 190.5,156.5C 187.494,155.959 184.494,155.626 181.5,155.5C 176.149,156.537 170.815,157.537 165.5,158.5C 162.214,158.76 159.047,158.427 156,157.5C 153.393,158.123 150.893,158.79 148.5,159.5C 145.269,158.762 142.269,158.762 139.5,159.5C 139.802,156.627 140.469,153.961 141.5,151.5C 141.56,152.043 141.893,152.376 142.5,152.5C 144.709,151.894 146.876,151.227 149,150.5C 150.974,150.647 152.974,150.981 155,151.5C 157.333,150.833 159.667,150.167 162,149.5C 166.992,149.8 171.658,150.133 176,150.5C 177.667,149.833 179.333,149.167 181,148.5C 184.894,148.53 188.727,148.53 192.5,148.5 Z"/></g>
<g><path style="opacity:0.981" fill="#561696" d="M 78.5,152.5 C 78.5,153.5 78.5,154.5 78.5,155.5C 76.1979,156.822 73.8646,156.822 71.5,155.5C 69.6183,156.093 67.7849,156.76 66,157.5C 61.8373,157.173 57.3373,157.173 52.5,157.5C 52.5,156.5 52.5,155.5 52.5,154.5C 61.3593,153.506 70.026,152.839 78.5,152.5 Z"/></g>
<g><path style="opacity:0.928" fill="#531b99" d="M 78.5,155.5 C 78.5,158.167 78.5,160.833 78.5,163.5C 76.2386,162.591 74.072,162.258 72,162.5C 69.733,163.289 67.3997,163.956 65,164.5C 63.0436,164.339 61.0436,164.006 59,163.5C 58.3333,164.167 57.6667,164.833 57,165.5C 55.3005,164.594 53.4672,164.261 51.5,164.5C 51.1984,161.941 51.5318,159.607 52.5,157.5C 57.3373,157.173 61.8373,157.173 66,157.5C 67.7849,156.76 69.6183,156.093 71.5,155.5C 73.8646,156.822 76.1979,156.822 78.5,155.5 Z"/></g>
<g><path style="opacity:1" fill="#511f9b" d="M 190.5,156.5 C 190.5,156.833 190.5,157.167 190.5,157.5C 187.075,157.546 183.575,157.546 180,157.5C 176.944,158.077 173.944,158.743 171,159.5C 169.041,158.956 167.208,158.623 165.5,158.5C 170.815,157.537 176.149,156.537 181.5,155.5C 184.494,155.626 187.494,155.959 190.5,156.5 Z"/></g>
<g><path style="opacity:1" fill="#501f9b" d="M 165.5,158.5 C 163.254,158.936 161.087,159.603 159,160.5C 155.428,160.273 151.928,159.94 148.5,159.5C 150.893,158.79 153.393,158.123 156,157.5C 159.047,158.427 162.214,158.76 165.5,158.5 Z"/></g>
<g><path style="opacity:0.967" fill="#4f229d" d="M 190.5,157.5 C 190.371,159.216 190.038,160.883 189.5,162.5C 180.623,163.433 172.29,164.099 164.5,164.5C 164.414,163.504 164.748,162.671 165.5,162C 159.509,161.501 153.509,161.334 147.5,161.5C 147.833,160.833 148.167,160.167 148.5,159.5C 151.928,159.94 155.428,160.273 159,160.5C 161.087,159.603 163.254,158.936 165.5,158.5C 167.208,158.623 169.041,158.956 171,159.5C 173.944,158.743 176.944,158.077 180,157.5C 183.575,157.546 187.075,157.546 190.5,157.5 Z"/></g>
<g><path style="opacity:0.956" fill="#50209c" d="M 148.5,159.5 C 148.167,160.167 147.833,160.833 147.5,161.5C 144.302,162.036 141.635,161.369 139.5,159.5C 142.269,158.762 145.269,158.762 148.5,159.5 Z"/></g>
<g><path style="opacity:0.952" fill="#4c27a1" d="M 189.5,162.5 C 189.371,164.216 189.038,165.883 188.5,167.5C 180.343,167.163 172.343,167.163 164.5,167.5C 164.5,166.5 164.5,165.5 164.5,164.5C 172.29,164.099 180.623,163.433 189.5,162.5 Z"/></g>
<g><path style="opacity:0.934" fill="#501f9b" d="M 78.5,163.5 C 78.5,163.833 78.5,164.167 78.5,164.5C 75.5839,164.75 72.5839,164.75 69.5,164.5C 68.5224,164.977 67.6891,165.643 67,166.5C 62.1473,166.127 56.9806,166.127 51.5,166.5C 51.5,165.833 51.5,165.167 51.5,164.5C 53.4672,164.261 55.3005,164.594 57,165.5C 57.6667,164.833 58.3333,164.167 59,163.5C 61.0436,164.006 63.0436,164.339 65,164.5C 67.3997,163.956 69.733,163.289 72,162.5C 74.072,162.258 76.2386,162.591 78.5,163.5 Z"/></g>
<g><path style="opacity:0.953" fill="#4e229e" d="M 78.5,164.5 C 78.366,166.292 78.6993,167.958 79.5,169.5C 70.8241,169.925 61.8241,170.592 52.5,171.5C 51.6993,169.958 51.366,168.292 51.5,166.5C 56.9806,166.127 62.1473,166.127 67,166.5C 67.6891,165.643 68.5224,164.977 69.5,164.5C 72.5839,164.75 75.5839,164.75 78.5,164.5 Z"/></g>
<g><path style="opacity:0.909" fill="#4a2aa3" d="M 188.5,167.5 C 188.5,167.833 188.5,168.167 188.5,168.5C 180.313,168.666 171.979,169.333 163.5,170.5C 163.263,169.209 163.596,168.209 164.5,167.5C 172.343,167.163 180.343,167.163 188.5,167.5 Z"/></g>
<g><path style="opacity:0.953" fill="#472ea5" d="M 188.5,168.5 C 187.962,170.117 187.629,171.784 187.5,173.5C 182.827,174.508 178.16,175.174 173.5,175.5C 173.167,175.5 172.833,175.5 172.5,175.5C 169.167,175.5 165.833,175.5 162.5,175.5C 162.629,173.784 162.962,172.117 163.5,170.5C 171.979,169.333 180.313,168.666 188.5,168.5 Z"/></g>
<g><path style="opacity:0.961" fill="#4c27a0" d="M 79.5,169.5 C 79.5,170.833 79.5,172.167 79.5,173.5C 70.0956,174.999 61.0956,175.666 52.5,175.5C 52.5,174.167 52.5,172.833 52.5,171.5C 61.8241,170.592 70.8241,169.925 79.5,169.5 Z"/></g>
<g><path style="opacity:1" fill="#4432a8" d="M 187.5,173.5 C 187.443,174.609 187.11,175.609 186.5,176.5C 183.351,175.684 179.851,176.017 176,177.5C 175.005,176.934 174.172,176.267 173.5,175.5C 178.16,175.174 182.827,174.508 187.5,173.5 Z"/></g>
<g><path style="opacity:1" fill="#492aa3" d="M 79.5,173.5 C 80.3382,173.842 80.6716,174.508 80.5,175.5C 71.7592,175.941 62.7592,176.607 53.5,177.5C 52.6618,177.158 52.3284,176.492 52.5,175.5C 61.0956,175.666 70.0956,174.999 79.5,173.5 Z"/></g>
<g><path style="opacity:0.958" fill="#472ea5" d="M 80.5,175.5 C 81.3627,177.421 82.0293,179.421 82.5,181.5C 73.1011,181.426 63.7677,181.759 54.5,182.5C 53.5489,181.081 53.2155,179.415 53.5,177.5C 62.7592,176.607 71.7592,175.941 80.5,175.5 Z"/></g>
<g><path style="opacity:0.944" fill="#4432a7" d="M 162.5,175.5 C 165.833,175.5 169.167,175.5 172.5,175.5C 171.359,176.339 170.026,177.006 168.5,177.5C 166.599,177.028 164.599,177.028 162.5,177.5C 162.5,176.833 162.5,176.167 162.5,175.5 Z"/></g>
<g><path style="opacity:0.944" fill="#4235aa" d="M 172.5,175.5 C 172.833,175.5 173.167,175.5 173.5,175.5C 174.172,176.267 175.005,176.934 176,177.5C 179.851,176.017 183.351,175.684 186.5,176.5C 186.5,177.833 186.5,179.167 186.5,180.5C 178.083,180.61 169.75,181.276 161.5,182.5C 161.216,180.585 161.549,178.919 162.5,177.5C 164.599,177.028 166.599,177.028 168.5,177.5C 170.026,177.006 171.359,176.339 172.5,175.5 Z"/></g>
<g><path style="opacity:0.937" fill="#3f3aad" d="M 186.5,180.5 C 185.89,181.391 185.557,182.391 185.5,183.5C 176.801,184.148 168.468,184.814 160.5,185.5C 160.263,184.209 160.596,183.209 161.5,182.5C 169.75,181.276 178.083,180.61 186.5,180.5 Z"/></g>
<g><path style="opacity:1" fill="#4532a8" d="M 82.5,181.5 C 83.1667,181.5 83.5,181.833 83.5,182.5C 74.04,182.98 64.3733,183.646 54.5,184.5C 54.5,183.833 54.5,183.167 54.5,182.5C 63.7677,181.759 73.1011,181.426 82.5,181.5 Z"/></g>
<g><path style="opacity:0.952" fill="#4235aa" d="M 83.5,182.5 C 84.2485,184.332 85.2485,185.999 86.5,187.5C 79.5751,187.899 72.7418,187.899 66,187.5C 65,188.167 64,188.833 63,189.5C 60.9592,188.577 58.7925,188.244 56.5,188.5C 55.6554,187.329 54.9887,185.995 54.5,184.5C 64.3733,183.646 74.04,182.98 83.5,182.5 Z"/></g>
<g><path style="opacity:0.974" fill="#3d3daf" d="M 185.5,183.5 C 185.5,184.167 185.5,184.833 185.5,185.5C 177.298,186.517 168.965,187.184 160.5,187.5C 160.5,186.833 160.5,186.167 160.5,185.5C 168.468,184.814 176.801,184.148 185.5,183.5 Z"/></g>
<g><path style="opacity:0.948" fill="#3b41b1" d="M 185.5,185.5 C 184.699,187.042 184.366,188.708 184.5,190.5C 176.526,191.858 168.192,192.525 159.5,192.5C 159.366,190.708 159.699,189.042 160.5,187.5C 168.965,187.184 177.298,186.517 185.5,185.5 Z"/></g>
<g><path style="opacity:0.955" fill="#3f3aad" d="M 86.5,187.5 C 87.1667,188.5 87.8333,189.5 88.5,190.5C 77.4678,191.322 67.1345,191.989 57.5,192.5C 56.7659,191.292 56.4326,189.959 56.5,188.5C 58.7925,188.244 60.9592,188.577 63,189.5C 64,188.833 65,188.167 66,187.5C 72.7418,187.899 79.5751,187.899 86.5,187.5 Z"/></g>
<g><path style="opacity:0.942" fill="#3d3daf" d="M 88.5,190.5 C 89.3382,190.842 89.6716,191.508 89.5,192.5C 88.8826,192.389 88.3826,192.056 88,191.5C 78.2496,192.356 68.4163,193.356 58.5,194.5C 58.1667,193.833 57.8333,193.167 57.5,192.5C 67.1345,191.989 77.4678,191.322 88.5,190.5 Z"/></g>
<g><path style="opacity:0.952" fill="#3b41b1" d="M 89.5,192.5 C 91.5398,194.177 93.5398,195.844 95.5,197.5C 93.5328,197.739 91.6995,197.406 90,196.5C 80.8412,197.673 71.3412,198.673 61.5,199.5C 60.2632,198.035 59.2632,196.368 58.5,194.5C 68.4163,193.356 78.2496,192.356 88,191.5C 88.3826,192.056 88.8826,192.389 89.5,192.5 Z"/></g>
<g><path style="opacity:0.971" fill="#3747b5" d="M 184.5,190.5 C 184.167,191.167 183.833,191.833 183.5,192.5C 175.185,193.429 166.518,194.096 157.5,194.5C 157.833,193.5 158.5,192.833 159.5,192.5C 168.192,192.525 176.526,191.858 184.5,190.5 Z"/></g>
<g><path style="opacity:0.908" fill="#334dba" d="M 183.5,192.5 C 183.5,193.167 183.5,193.833 183.5,194.5C 173.864,195.498 164.197,196.164 154.5,196.5C 154.973,195.094 155.973,194.427 157.5,194.5C 166.518,194.096 175.185,193.429 183.5,192.5 Z"/></g>
<g><path style="opacity:0.912" fill="#2e54be" d="M 183.5,194.5 C 183.672,195.492 183.338,196.158 182.5,196.5C 172.049,197.096 161.383,197.762 150.5,198.5C 151.514,197.326 152.847,196.66 154.5,196.5C 164.197,196.164 173.864,195.498 183.5,194.5 Z"/></g>
<g><path style="opacity:0.933" fill="#2a5ac2" d="M 182.5,196.5 C 182.5,197.167 182.5,197.833 182.5,198.5C 170.48,198.857 158.48,199.524 146.5,200.5C 147.514,199.326 148.847,198.66 150.5,198.5C 161.383,197.762 172.049,197.096 182.5,196.5 Z"/></g>
<g><path style="opacity:1" fill="#3747b6" d="M 95.5,197.5 C 96.1667,197.5 96.5,197.833 96.5,198.5C 85.4586,199.314 74.1253,199.981 62.5,200.5C 61.8333,200.5 61.5,200.167 61.5,199.5C 71.3412,198.673 80.8412,197.673 90,196.5C 91.6995,197.406 93.5328,197.739 95.5,197.5 Z"/></g>
<g><path style="opacity:0.948" fill="#334dba" d="M 96.5,198.5 C 98.0269,198.427 99.0269,199.094 99.5,200.5C 87.2231,201.191 75.2231,201.858 63.5,202.5C 62.6618,202.158 62.3284,201.492 62.5,200.5C 74.1253,199.981 85.4586,199.314 96.5,198.5 Z"/></g>
<g><path style="opacity:0.95" fill="#2760c6" d="M 182.5,198.5 C 182.5,198.833 182.5,199.167 182.5,199.5C 168.849,200.632 155.182,201.632 141.5,202.5C 142.93,201.463 144.597,200.796 146.5,200.5C 158.48,199.524 170.48,198.857 182.5,198.5 Z"/></g>
<g><path style="opacity:0.929" fill="#2267ca" d="M 182.5,199.5 C 182.672,200.492 182.338,201.158 181.5,201.5C 166.27,202.968 150.937,203.968 135.5,204.5C 137.302,203.542 139.302,202.875 141.5,202.5C 155.182,201.632 168.849,200.632 182.5,199.5 Z"/></g>
<g><path style="opacity:0.958" fill="#2e54be" d="M 99.5,200.5 C 100.492,200.328 101.158,200.662 101.5,201.5C 89.3971,203.03 77.3971,204.03 65.5,204.5C 64.5,204.167 63.8333,203.5 63.5,202.5C 75.2231,201.858 87.2231,201.191 99.5,200.5 Z"/></g>
<g><path style="opacity:1" fill="#2a5ac2" d="M 101.5,201.5 C 103.403,201.796 105.07,202.463 106.5,203.5C 92.8267,204.042 79.1601,204.709 65.5,205.5C 65.5,205.167 65.5,204.833 65.5,204.5C 77.3971,204.03 89.3971,203.03 101.5,201.5 Z"/></g>
<g><path style="opacity:0.929" fill="#2660c6" d="M 106.5,203.5 C 107.791,203.263 108.791,203.596 109.5,204.5C 95.7749,205.477 81.7749,206.477 67.5,207.5C 66.5,207.167 65.8333,206.5 65.5,205.5C 79.1601,204.709 92.8267,204.042 106.5,203.5 Z"/></g>
<g><path style="opacity:1" fill="#1e6dce" d="M 181.5,201.5 C 181.5,202.167 181.5,202.833 181.5,203.5C 144.453,205.98 107.453,208.313 70.5,210.5C 69.8333,210.5 69.5,210.167 69.5,209.5C 85.9303,208.162 102.264,206.828 118.5,205.5C 124.12,206.039 129.787,205.705 135.5,204.5C 150.937,203.968 166.27,202.968 181.5,201.5 Z"/></g>
<g><path style="opacity:0.982" fill="#1a73d2" d="M 181.5,203.5 C 181.5,204.167 181.5,204.833 181.5,205.5C 144.783,208.211 108.45,210.544 72.5,212.5C 71.5,212.167 70.8333,211.5 70.5,210.5C 107.453,208.313 144.453,205.98 181.5,203.5 Z"/></g>
<g><path style="opacity:0.917" fill="#2267ca" d="M 109.5,204.5 C 112.482,204.963 115.482,205.296 118.5,205.5C 102.264,206.828 85.9303,208.162 69.5,209.5C 68.5,209.167 67.8333,208.5 67.5,207.5C 81.7749,206.477 95.7749,205.477 109.5,204.5 Z"/></g>
<g><path style="opacity:0.986" fill="#1679d6" d="M 181.5,205.5 C 181.167,206.167 180.833,206.833 180.5,207.5C 171.306,207.561 162.306,208.228 153.5,209.5C 152.167,209.5 150.833,209.5 149.5,209.5C 130.862,210.254 112.195,211.587 93.5,213.5C 93.1667,213.5 92.8333,213.5 92.5,213.5C 92.44,212.957 92.1067,212.624 91.5,212.5C 86.368,213.121 81.368,213.787 76.5,214.5C 75.8333,214.5 75.1667,214.5 74.5,214.5C 73.5,214.167 72.8333,213.5 72.5,212.5C 108.45,210.544 144.783,208.211 181.5,205.5 Z"/></g>
<g><path style="opacity:0.975" fill="#137ed9" d="M 180.5,207.5 C 180.5,207.833 180.5,208.167 180.5,208.5C 171.509,209.041 162.509,209.374 153.5,209.5C 162.306,208.228 171.306,207.561 180.5,207.5 Z"/></g>
<g><path style="opacity:1" fill="#1181dc" d="M 180.5,208.5 C 180.5,208.833 180.5,209.167 180.5,209.5C 146.91,211.85 113.577,213.85 80.5,215.5C 84.5,214.833 88.5,214.167 92.5,213.5C 92.8333,213.5 93.1667,213.5 93.5,213.5C 112.383,213.071 131.049,211.738 149.5,209.5C 150.833,209.5 152.167,209.5 153.5,209.5C 162.509,209.374 171.509,209.041 180.5,208.5 Z"/></g>
<g><path style="opacity:0.985" fill="#0e86df" d="M 180.5,209.5 C 180.672,210.492 180.338,211.158 179.5,211.5C 146.16,213.834 112.827,216.167 79.5,218.5C 78.5,218.167 77.8333,217.5 77.5,216.5C 78.791,216.737 79.791,216.404 80.5,215.5C 113.577,213.85 146.91,211.85 180.5,209.5 Z"/></g>
<g><path style="opacity:1" fill="#137ed9" d="M 149.5,209.5 C 131.049,211.738 112.383,213.071 93.5,213.5C 112.195,211.587 130.862,210.254 149.5,209.5 Z"/></g>
<g><path style="opacity:0.982" fill="#0a8ce3" d="M 179.5,211.5 C 179.5,212.5 179.5,213.5 179.5,214.5C 147.908,215.901 115.908,217.901 83.5,220.5C 81.847,220.34 80.5137,219.674 79.5,218.5C 112.827,216.167 146.16,213.834 179.5,211.5 Z"/></g>
<g><path style="opacity:1" fill="#137eda" d="M 92.5,213.5 C 88.5,214.167 84.5,214.833 80.5,215.5C 79.1667,215.167 77.8333,214.833 76.5,214.5C 81.368,213.787 86.368,213.121 91.5,212.5C 92.1067,212.624 92.44,212.957 92.5,213.5 Z"/></g>
<g><path style="opacity:0.985" fill="#0791e6" d="M 179.5,214.5 C 179.5,215.167 179.5,215.833 179.5,216.5C 176.934,217.385 174.6,217.385 172.5,216.5C 171.735,216.077 170.902,215.743 170,215.5C 154.486,216.807 138.986,218.14 123.5,219.5C 122.914,219.291 122.414,218.957 122,218.5C 118.397,219.135 114.897,219.802 111.5,220.5C 102.485,220.501 93.4846,220.834 84.5,221.5C 83.8333,221.5 83.5,221.167 83.5,220.5C 115.908,217.901 147.908,215.901 179.5,214.5 Z"/></g>
<g><path style="opacity:0.777" fill="#1181dc" d="M 74.5,214.5 C 75.1667,214.5 75.8333,214.5 76.5,214.5C 77.8333,214.833 79.1667,215.167 80.5,215.5C 79.791,216.404 78.791,216.737 77.5,216.5C 75.9731,216.573 74.9731,215.906 74.5,214.5 Z"/></g>
<g><path style="opacity:0.973" fill="#0298eb" d="M 172.5,216.5 C 174.6,217.385 176.934,217.385 179.5,216.5C 178.766,217.708 178.433,219.041 178.5,220.5C 171.791,220.641 164.958,221.308 158,222.5C 153.297,221.597 148.631,221.93 144,223.5C 141.224,222.352 138.557,222.686 136,224.5C 124.581,224.411 113.248,224.411 102,224.5C 99.723,225.117 97.5563,225.784 95.5,226.5C 92.2558,225.537 89.2558,224.204 86.5,222.5C 95.0224,222.345 103.356,221.678 111.5,220.5C 126.78,220.439 141.947,219.439 157,217.5C 158.667,217.833 160.333,218.167 162,218.5C 165.603,217.865 169.103,217.198 172.5,216.5 Z"/></g>
<g><path style="opacity:1" fill="#0594e8" d="M 172.5,216.5 C 169.103,217.198 165.603,217.865 162,218.5C 160.333,218.167 158.667,217.833 157,217.5C 141.947,219.439 126.78,220.439 111.5,220.5C 114.897,219.802 118.397,219.135 122,218.5C 122.414,218.957 122.914,219.291 123.5,219.5C 138.986,218.14 154.486,216.807 170,215.5C 170.902,215.743 171.735,216.077 172.5,216.5 Z"/></g>
<g><path style="opacity:0.862" fill="#0594e8" d="M 111.5,220.5 C 103.356,221.678 95.0224,222.345 86.5,222.5C 85.5084,222.672 84.8417,222.338 84.5,221.5C 93.4846,220.834 102.485,220.501 111.5,220.5 Z"/></g>
<g><path style="opacity:0.85" fill="#009ced" d="M 178.5,220.5 C 177.706,223.802 177.04,227.135 176.5,230.5C 168.5,230.5 160.5,230.5 152.5,230.5C 152.244,228.208 152.577,226.041 153.5,224C 148.143,224.89 142.81,226.223 137.5,228C 123.318,231.594 109.318,231.094 95.5,226.5C 97.5563,225.784 99.723,225.117 102,224.5C 113.248,224.411 124.581,224.411 136,224.5C 138.557,222.686 141.224,222.352 144,223.5C 148.631,221.93 153.297,221.597 158,222.5C 164.958,221.308 171.791,220.641 178.5,220.5 Z"/></g>
</svg>
