<svg version="1.1" id="Layer_1" xmlns="http://www.w3.org/2000/svg" xmlns:xlink="http://www.w3.org/1999/xlink" x="0px" y="0px"
	 width="100%" viewBox="0 0 350 350" enable-background="new 0 0 350 350" xml:space="preserve">
<path fill="#FFFFFF" opacity="1.000000" stroke="none" 
	d="
M205.000000,351.000000 
	C136.666672,351.000000 68.833359,351.000000 1.000027,351.000000 
	C1.000018,234.333359 1.000018,117.666733 1.000009,1.000074 
	C117.666618,1.000050 234.333237,1.000050 350.999878,1.000025 
	C350.999939,117.666595 350.999939,234.333191 350.999969,350.999878 
	C302.500000,351.000000 254.000000,351.000000 205.000000,351.000000 
M75.748642,215.418808 
	C75.748642,215.418808 75.758942,215.481155 75.793243,216.098083 
	C76.491318,216.413284 77.189392,216.728485 78.104317,217.587402 
	C78.698502,218.072540 79.292686,218.557678 80.153725,219.647675 
	C81.088501,220.136581 82.023277,220.625488 83.192078,221.657211 
	C83.756798,221.785782 84.321510,221.914352 85.175529,222.670929 
	C86.766815,223.482712 88.358101,224.294495 90.290825,225.728317 
	C91.843109,226.186783 93.395401,226.645248 95.344543,227.763306 
	C115.287628,234.248611 134.871063,232.591751 154.256454,224.561935 
	C154.256454,227.325226 154.256454,229.491013 154.256454,231.753174 
	C162.272064,231.753174 170.037888,231.753174 178.102310,231.753174 
	C178.698761,227.703308 179.266006,223.851807 180.114716,219.394669 
	C180.354294,218.605148 180.593857,217.815613 180.949554,216.513000 
	C180.910950,216.341934 180.872360,216.170883 180.970520,215.337799 
	C180.924835,214.891769 180.879150,214.445755 181.065033,213.460083 
	C181.321213,212.973114 181.577393,212.486130 181.974258,211.317581 
	C181.688385,210.531326 181.402512,209.745056 181.208603,208.363251 
	C181.750153,207.908035 182.291687,207.452835 182.972565,206.320374 
	C182.687683,205.534149 182.402802,204.747940 182.243057,203.334213 
	C182.536026,202.544250 182.828979,201.754272 183.143860,200.405594 
	C183.373962,199.937546 183.604080,199.469482 183.970505,198.337891 
	C183.924683,197.890991 183.878860,197.444107 184.065811,196.455887 
	C184.320816,195.967926 184.575806,195.479980 184.986099,194.251221 
	C185.268402,192.833282 185.550705,191.415344 185.990875,189.228622 
	C186.271698,187.484863 186.552536,185.741104 187.198242,183.281799 
	C187.506531,181.200729 187.814819,179.119675 188.736725,176.716324 
	C188.768448,175.809631 188.800171,174.902939 188.983719,173.293243 
	C189.266418,172.194839 189.549118,171.096420 189.976151,169.253693 
	C190.261673,167.834656 190.547195,166.415604 190.975647,164.252167 
	C191.261230,162.833969 191.546799,161.415756 191.976547,159.253113 
	C192.262131,157.835052 192.547714,156.416992 192.976669,154.302292 
	C193.262299,153.200806 193.547913,152.099335 193.977402,150.205414 
	C193.929321,149.136124 193.881241,148.066818 194.211853,146.259689 
	C194.513046,144.625778 194.814240,142.991867 195.181961,140.997040 
	C181.106110,140.997040 167.719376,140.997360 154.332642,140.996933 
	C145.396164,140.996658 145.395187,140.995926 143.098160,149.509384 
	C143.058792,149.655319 143.141266,149.834137 143.020432,150.693512 
	C142.735748,151.795105 142.451080,152.896698 142.021255,154.781097 
	C141.975845,155.840363 141.930450,156.899628 141.184418,158.398300 
	C141.184418,159.827927 141.184418,161.257538 141.184418,162.832443 
	C149.599884,162.832443 157.800018,162.832443 166.552856,163.122070 
	C166.424164,164.080399 166.295456,165.038712 166.020599,166.740982 
	C165.736267,168.160019 165.451920,169.579071 165.023315,171.693253 
	C164.738083,172.794281 164.452850,173.895294 164.023163,175.740250 
	C164.070374,176.493546 164.117584,177.246826 163.825989,178.682434 
	C163.272873,180.787460 162.719772,182.892487 162.023422,185.772125 
	C161.737762,187.513962 161.452118,189.255814 161.022720,191.702148 
	C160.312195,193.120148 159.601685,194.538147 158.242401,196.003204 
	C157.456802,196.654739 156.671204,197.306259 155.217926,198.003525 
	C154.127777,198.633560 153.037628,199.263596 151.213165,199.997635 
	C149.152603,201.338150 145.629883,201.109085 145.198273,204.700256 
	C141.116562,205.430527 137.034851,206.160797 132.072281,206.983093 
	C127.083160,207.305099 122.094040,207.627106 116.743347,207.300568 
	C114.844986,206.830200 112.946617,206.359833 110.730652,205.284760 
	C109.836792,205.153625 108.942924,205.022476 107.659027,204.238632 
	C106.141388,204.142899 104.623756,204.047180 102.986557,203.181641 
	C100.693024,202.439041 98.399483,201.696442 96.015732,200.200760 
	C95.027786,198.766586 94.039841,197.332413 92.783936,195.282898 
	C91.134163,193.188583 89.484398,191.094269 87.819862,188.374969 
	C86.848999,187.144867 85.878143,185.914780 84.926476,183.921890 
	C84.228577,182.614075 83.530678,181.306244 82.964302,179.289368 
	C82.348213,177.845703 81.732132,176.402023 81.016594,174.187637 
	C80.715698,172.776733 80.414803,171.365845 80.014397,169.166077 
	C79.954376,168.110596 79.894356,167.055130 79.977409,165.207031 
	C79.929558,164.137695 79.881699,163.068359 79.977005,161.206467 
	C79.929291,160.137115 79.881569,159.067780 79.977859,157.182007 
	C80.024002,155.802597 80.070145,154.423172 80.767838,152.681641 
	C81.123192,150.786850 81.478546,148.892044 81.977875,146.222824 
	C82.930336,143.147888 83.882797,140.072968 85.129417,136.360901 
	C86.121765,134.590363 87.114105,132.819839 88.730125,130.742111 
	C91.169319,127.197487 93.608513,123.652870 96.685280,119.825630 
	C97.767288,118.404137 98.571320,116.564613 99.976997,115.629868 
	C108.311592,110.087502 116.202003,103.283066 125.335518,99.661156 
	C143.774216,92.349251 162.213150,92.203987 178.661835,105.925438 
	C179.395844,106.537766 182.291046,106.017441 182.834930,105.165878 
	C186.727341,99.071365 190.270798,92.753990 194.063263,86.271332 
	C191.500031,84.050789 189.280533,81.817818 186.762741,79.997429 
	C170.937164,68.555389 152.678162,71.187698 135.280945,72.705139 
	C119.688263,74.065193 105.571220,81.263092 93.011543,90.974518 
	C82.563431,99.053230 73.201561,108.057526 66.299492,120.183487 
	C64.255180,124.121567 62.210865,128.059662 60.010735,132.717148 
	C59.395267,134.477859 58.779797,136.238586 57.824818,138.688919 
	C56.938385,141.791931 56.051952,144.894928 55.017933,148.770462 
	C54.733582,150.513092 54.449234,152.255707 54.019104,154.816605 
	C53.971474,156.199341 53.923843,157.582092 53.206852,159.355988 
	C53.193333,160.903336 53.179810,162.450699 53.021095,164.790359 
	C53.069511,165.859955 53.117928,166.929565 53.021961,168.734222 
	C53.309223,169.837708 53.596481,170.941193 53.981251,172.867706 
	C54.042820,174.245056 54.104389,175.622391 54.032181,177.706375 
	C54.410133,178.803925 54.788086,179.901474 55.023033,181.742340 
	C55.643879,183.509247 56.264725,185.276154 56.983212,187.755173 
	C57.377266,188.836365 57.771317,189.917542 58.033253,191.718597 
	C59.403229,194.279434 60.773201,196.840286 62.089806,200.093765 
	C62.688362,200.743958 63.286919,201.394135 63.993774,202.729706 
	C64.960884,203.504028 65.927986,204.278351 67.113014,205.602463 
	C67.464027,206.067917 67.815041,206.533386 68.030052,207.606674 
	C68.315773,208.086288 68.601494,208.565918 69.104874,209.590149 
	C69.700615,210.075974 70.296364,210.561798 71.059555,211.523300 
	C71.335365,211.696823 71.611168,211.870346 72.213272,212.712601 
	C73.376472,213.600143 74.539673,214.487686 75.748642,215.418808 
M277.523254,294.013489 
	C280.473083,296.300720 283.475159,298.524109 286.363220,300.886841 
	C296.081329,308.837250 305.653381,316.971161 315.512146,324.742035 
	C318.741455,327.287445 322.481842,330.083252 326.331757,330.734222 
	C332.279663,331.739929 338.522858,330.999268 345.000000,330.999268 
	C345.000000,327.624146 344.736877,324.637421 345.053772,321.713562 
	C345.752472,315.266968 343.652527,310.097534 338.604706,306.121368 
	C330.057129,299.388458 321.518219,292.643188 312.896088,286.006500 
	C302.621216,278.097687 292.181061,270.402191 281.960419,262.424744 
	C268.711273,252.083511 255.608063,241.555237 242.402893,231.076416 
	C243.263474,230.508011 244.654999,230.033508 245.350891,229.061157 
	C253.085648,218.253693 261.446472,207.893890 266.393555,195.263062 
	C269.878784,186.364624 273.772186,177.697159 275.454346,168.175613 
	C277.081360,158.966415 279.115692,149.989075 278.212830,140.378769 
	C277.224548,129.859207 277.351807,119.509438 273.363617,109.215332 
	C270.565582,101.993225 268.952606,94.363960 264.975128,87.445297 
	C257.022858,73.612602 248.084549,60.673817 235.298706,50.835022 
	C215.374191,35.502945 192.970856,25.735069 167.953400,23.207375 
	C155.943451,21.993925 143.565247,21.819117 131.616440,23.297197 
	C118.096924,24.969576 104.445442,27.830807 91.649536,32.407013 
	C80.769424,36.298065 70.886520,43.128448 60.812878,49.082146 
	C50.231480,55.335941 41.094276,63.404259 32.855175,72.568161 
	C24.142502,82.258781 16.493990,92.650154 10.367495,104.149544 
	C9.088238,106.550713 7.954231,109.029259 6.401866,112.186989 
	C11.426415,111.702827 15.600969,112.079887 19.128613,110.746040 
	C22.809910,109.354103 27.170954,110.946770 30.372295,106.558250 
	C38.068821,96.007561 45.055470,84.724953 55.784214,76.721214 
	C62.135994,71.982727 68.208870,66.767021 74.974655,62.713013 
	C83.441956,57.639469 92.322296,53.380455 102.103111,50.877384 
	C117.992561,46.811016 133.630936,42.968765 150.398514,44.679874 
	C173.828812,47.070904 195.375137,53.492725 213.576508,69.043419 
	C219.852631,74.405556 226.138580,79.708221 230.066605,87.246239 
	C234.356583,95.478821 239.482681,103.331001 243.113480,111.831985 
	C245.463943,117.335205 246.388443,123.655685 246.880478,129.697220 
	C247.684204,139.565811 249.217407,149.785431 247.548126,159.351837 
	C244.828247,174.939011 239.347565,189.972046 230.241745,203.265182 
	C221.947403,215.373703 212.076889,226.044037 200.444214,235.067154 
	C187.031113,245.471298 171.538910,251.712524 155.655411,256.874817 
	C148.513824,259.195892 140.778046,259.684814 133.314575,261.020233 
	C118.622581,263.649078 103.931595,262.004150 90.110619,257.658356 
	C73.869591,252.551605 58.132271,245.490646 45.600628,233.132675 
	C44.979568,232.520233 43.893368,232.026642 43.042675,232.054535 
	C34.731510,232.327118 26.424377,232.722565 17.244120,233.120865 
	C24.070227,243.431656 32.321899,250.951752 41.106171,258.054932 
	C51.262161,266.267273 62.901527,271.518372 74.826591,276.510590 
	C88.185875,282.103180 102.127823,284.611023 116.367661,284.826874 
	C128.182312,285.005890 140.054825,284.018951 151.833481,282.857086 
	C158.187180,282.230316 164.601776,280.727783 170.624054,278.591736 
	C179.190292,275.553284 187.718353,272.124512 195.718018,267.844421 
	C205.277374,262.729797 214.262024,256.541046 224.016251,250.494843 
	C241.127213,264.383606 259.064301,278.942963 277.523254,294.013489 
z"/>
<path fill="#000000" opacity="1.000000" stroke="none" 
	d="
M277.262329,293.757874 
	C259.064301,278.942963 241.127213,264.383606 224.016251,250.494843 
	C214.262024,256.541046 205.277374,262.729797 195.718018,267.844421 
	C187.718353,272.124512 179.190292,275.553284 170.624054,278.591736 
	C164.601776,280.727783 158.187180,282.230316 151.833481,282.857086 
	C140.054825,284.018951 128.182312,285.005890 116.367661,284.826874 
	C102.127823,284.611023 88.185875,282.103180 74.826591,276.510590 
	C62.901527,271.518372 51.262161,266.267273 41.106171,258.054932 
	C32.321899,250.951752 24.070227,243.431656 17.244120,233.120865 
	C26.424377,232.722565 34.731510,232.327118 43.042675,232.054535 
	C43.893368,232.026642 44.979568,232.520233 45.600628,233.132675 
	C58.132271,245.490646 73.869591,252.551605 90.110619,257.658356 
	C103.931595,262.004150 118.622581,263.649078 133.314575,261.020233 
	C140.778046,259.684814 148.513824,259.195892 155.655411,256.874817 
	C171.538910,251.712524 187.031113,245.471298 200.444214,235.067154 
	C212.076889,226.044037 221.947403,215.373703 230.241745,203.265182 
	C239.347565,189.972046 244.828247,174.939011 247.548126,159.351837 
	C249.217407,149.785431 247.684204,139.565811 246.880478,129.697220 
	C246.388443,123.655685 245.463943,117.335205 243.113480,111.831985 
	C239.482681,103.331001 234.356583,95.478821 230.066605,87.246239 
	C226.138580,79.708221 219.852631,74.405556 213.576508,69.043419 
	C195.375137,53.492725 173.828812,47.070904 150.398514,44.679874 
	C133.630936,42.968765 117.992561,46.811016 102.103111,50.877384 
	C92.322296,53.380455 83.441956,57.639469 74.974655,62.713013 
	C68.208870,66.767021 62.135994,71.982727 55.784214,76.721214 
	C45.055470,84.724953 38.068821,96.007561 30.372295,106.558250 
	C27.170954,110.946770 22.809910,109.354103 19.128613,110.746040 
	C15.600969,112.079887 11.426415,111.702827 6.401866,112.186989 
	C7.954231,109.029259 9.088238,106.550713 10.367495,104.149544 
	C16.493990,92.650154 24.142502,82.258781 32.855175,72.568161 
	C41.094276,63.404259 50.231480,55.335941 60.812878,49.082146 
	C70.886520,43.128448 80.769424,36.298065 91.649536,32.407013 
	C104.445442,27.830807 118.096924,24.969576 131.616440,23.297197 
	C143.565247,21.819117 155.943451,21.993925 167.953400,23.207375 
	C192.970856,25.735069 215.374191,35.502945 235.298706,50.835022 
	C248.084549,60.673817 257.022858,73.612602 264.975128,87.445297 
	C268.952606,94.363960 270.565582,101.993225 273.363617,109.215332 
	C277.351807,119.509438 277.224548,129.859207 278.212830,140.378769 
	C279.115692,149.989075 277.081360,158.966415 275.454346,168.175613 
	C273.772186,177.697159 269.878784,186.364624 266.393555,195.263062 
	C261.446472,207.893890 253.085648,218.253693 245.350891,229.061157 
	C244.654999,230.033508 243.263474,230.508011 242.402893,231.076416 
	C255.608063,241.555237 268.711273,252.083511 281.960419,262.424744 
	C292.181061,270.402191 302.621216,278.097687 312.896088,286.006500 
	C321.518219,292.643188 330.057129,299.388458 338.604706,306.121368 
	C343.652527,310.097534 345.752472,315.266968 345.053772,321.713562 
	C344.736877,324.637421 345.000000,327.624146 345.000000,330.999268 
	C338.522858,330.999268 332.279663,331.739929 326.331757,330.734222 
	C322.481842,330.083252 318.741455,327.287445 315.512146,324.742035 
	C305.653381,316.971161 296.081329,308.837250 286.363220,300.886841 
	C283.475159,298.524109 280.473083,296.300720 277.262329,293.757874 
z"/>
<path fill="#660087" opacity="1.000000" stroke="none" 
	d="
M66.950241,119.892967 
	C73.201561,108.057526 82.563431,99.053230 93.011543,90.974518 
	C105.571220,81.263092 119.688263,74.065193 135.280945,72.705139 
	C152.678162,71.187698 170.937164,68.555389 186.762741,79.997429 
	C189.280533,81.817818 191.500031,84.050789 194.063263,86.271332 
	C190.270798,92.753990 186.727341,99.071365 182.834930,105.165878 
	C182.291046,106.017441 179.395844,106.537766 178.661835,105.925438 
	C162.213150,92.203987 143.774216,92.349251 125.335518,99.661156 
	C116.202003,103.283066 108.311592,110.087502 99.976997,115.629868 
	C98.571320,116.564613 97.767288,118.404137 96.117706,119.665009 
	C90.015945,119.842468 84.485199,120.348953 78.946419,120.462090 
	C74.953232,120.543663 70.949348,120.101517 66.950241,119.892967 
z"/>
<path fill="#019CED" opacity="1.000000" stroke="none" 
	d="
M179.833252,220.000290 
	C179.266006,223.851807 178.698761,227.703308 178.102310,231.753174 
	C170.037888,231.753174 162.272064,231.753174 154.256454,231.753174 
	C154.256454,229.491013 154.256454,227.325226 154.256454,224.561935 
	C134.871063,232.591751 115.287628,234.248611 95.403130,227.130524 
	C105.976814,225.651917 116.489357,224.772675 127.007584,223.967712 
	C144.614227,222.620285 162.224503,221.320267 179.833252,220.000290 
z"/>
<path fill="#591394" opacity="1.000000" stroke="none" 
	d="
M143.166885,149.997604 
	C143.141266,149.834137 143.058792,149.655319 143.098160,149.509384 
	C145.395187,140.995926 145.396164,140.996658 154.332642,140.996933 
	C167.719376,140.997360 181.106110,140.997040 195.181961,140.997040 
	C194.814240,142.991867 194.513046,144.625778 193.565247,146.629349 
	C176.334717,147.998550 159.750809,148.998077 143.166885,149.997604 
z"/>
<path fill="#63048A" opacity="1.000000" stroke="none" 
	d="
M66.624863,120.038223 
	C70.949348,120.101517 74.953232,120.543663 78.946419,120.462090 
	C84.485199,120.348953 90.015945,119.842468 95.798920,119.806320 
	C93.608513,123.652870 91.169319,127.197487 88.048393,130.736115 
	C85.935539,130.538483 84.487335,130.099075 83.076149,130.196426 
	C75.434563,130.723602 67.802139,131.383545 60.166557,131.997742 
	C62.210865,128.059662 64.255180,124.121567 66.624863,120.038223 
z"/>
<path fill="#521F9B" opacity="1.000000" stroke="none" 
	d="
M166.000137,162.832443 
	C157.800018,162.832443 149.599884,162.832443 141.184418,162.832443 
	C141.184418,161.257538 141.184418,159.827927 141.996460,158.190720 
	C144.970886,157.969391 147.140411,158.064819 149.294540,157.924255 
	C163.809280,156.977112 178.320755,155.979919 192.833298,154.998932 
	C192.547714,156.416992 192.262131,157.835052 191.450821,159.626038 
	C183.597473,160.333817 176.265640,160.603592 168.947113,161.078537 
	C167.931137,161.144470 166.980835,162.222794 166.000137,162.832443 
z"/>
<path fill="#3E3EB0" opacity="1.000000" stroke="none" 
	d="
M87.834625,188.999969 
	C89.484398,191.094269 91.134163,193.188583 92.666252,195.892014 
	C88.985306,197.000351 85.435295,197.649094 81.855888,197.966278 
	C75.294136,198.547775 68.715042,198.933685 62.143181,199.401123 
	C60.773201,196.840286 59.403229,194.279434 58.533897,191.359268 
	C68.634575,190.333282 78.234596,189.666626 87.834625,188.999969 
z"/>
<path fill="#5D0E90" opacity="1.000000" stroke="none" 
	d="
M84.835258,136.998047 
	C83.882797,140.072968 82.930336,143.147888 81.452133,146.610962 
	C72.339439,147.332062 63.752480,147.665009 55.165520,147.997940 
	C56.051952,144.894928 56.938385,141.791931 58.452263,138.344589 
	C67.664886,137.666183 76.250076,137.332108 84.835258,136.998047 
z"/>
<path fill="#0496EA" opacity="1.000000" stroke="none" 
	d="
M179.973984,219.697479 
	C162.224503,221.320267 144.614227,222.620285 127.007584,223.967712 
	C116.489357,224.772675 105.976814,225.651917 95.204704,226.800735 
	C93.395401,226.645248 91.843109,226.186783 90.311371,225.062958 
	C93.128731,223.931625 95.958443,223.603165 98.709221,222.944839 
	C100.209183,222.585892 101.575333,221.667770 103.334831,221.001602 
	C104.111885,221.001740 104.555946,221.002090 105.293045,221.298615 
	C112.020477,221.396576 118.458511,221.277969 124.888512,220.983643 
	C138.304108,220.369553 151.717758,219.701645 165.123917,218.914383 
	C166.117050,218.856064 167.043686,217.665451 168.334351,217.001053 
	C169.111649,217.000992 169.555817,217.001114 170.278839,217.290649 
	C173.982941,217.395432 177.408173,217.210770 180.833420,217.026093 
	C180.593857,217.815613 180.354294,218.605148 179.973984,219.697479 
z"/>
<path fill="#561897" opacity="1.000000" stroke="none" 
	d="
M143.093658,150.345551 
	C159.750809,148.998077 176.334717,147.998550 193.375900,146.998260 
	C193.881241,148.066818 193.929321,149.136124 193.458801,150.602325 
	C190.622421,151.013290 188.297089,150.910522 185.988144,151.060379 
	C171.378891,152.008545 156.773239,153.012634 142.166412,153.998291 
	C142.451080,152.896698 142.735748,151.795105 143.093658,150.345551 
z"/>
<path fill="#541B98" opacity="1.000000" stroke="none" 
	d="
M142.093842,154.389679 
	C156.773239,153.012634 171.378891,152.008545 185.988144,151.060379 
	C188.297089,150.910522 190.622421,151.013290 193.386856,150.998550 
	C193.547913,152.099335 193.262299,153.200806 192.904984,154.650604 
	C178.320755,155.979919 163.809280,156.977112 149.294540,157.924255 
	C147.140411,158.064819 144.970886,157.969391 142.346771,157.971008 
	C141.930450,156.899628 141.975845,155.840363 142.093842,154.389679 
z"/>
<path fill="#60088C" opacity="1.000000" stroke="none" 
	d="
M84.982338,136.679474 
	C76.250076,137.332108 67.664886,137.666183 58.622017,137.999786 
	C58.779797,136.238586 59.395267,134.477859 60.088646,132.357452 
	C67.802139,131.383545 75.434563,130.723602 83.076149,130.196426 
	C84.487335,130.099075 85.935539,130.538483 87.736557,130.889725 
	C87.114105,132.819839 86.121765,134.590363 84.982338,136.679474 
z"/>
<path fill="#1183DD" opacity="1.000000" stroke="none" 
	d="
M181.116638,208.958801 
	C181.402512,209.745056 181.688385,210.531326 181.480408,211.658768 
	C162.323654,212.999161 143.660751,213.998367 125.079926,214.617477 
	C126.653244,213.824280 128.193405,213.533066 129.620667,212.960449 
	C130.816177,212.480835 131.879807,211.672531 133.427948,211.007492 
	C137.235031,211.335373 140.615982,211.665543 144.407394,211.997238 
	C146.545593,211.335220 148.273361,210.671692 150.469711,210.006683 
	C160.997742,209.656418 171.057190,209.307617 181.116638,208.958801 
z"/>
<path fill="#157CD9" opacity="1.000000" stroke="none" 
	d="
M133.001831,211.009766 
	C131.879807,211.672531 130.816177,212.480835 129.620667,212.960449 
	C128.193405,213.533066 126.653244,213.824280 124.620453,214.618484 
	C119.718857,215.330750 115.358803,215.661942 110.708054,215.698990 
	C108.780182,215.269699 107.129204,214.926361 105.508095,215.033798 
	C96.297272,215.644150 87.093575,216.362259 77.887459,217.043686 
	C77.189392,216.728485 76.491318,216.413284 76.075470,215.580475 
	C76.905113,214.376678 77.452522,213.690475 78.368942,212.998352 
	C80.158234,212.664673 81.578514,212.336884 83.248581,212.286789 
	C84.998917,212.710449 86.499458,212.856445 88.246140,213.278259 
	C90.890701,214.301270 93.060692,214.641525 93.380692,211.016571 
	C94.502472,211.012299 95.250336,211.011429 96.222122,211.299179 
	C98.629372,212.057114 100.812698,212.526413 103.439865,212.997070 
	C106.589157,212.334702 109.294624,211.671021 112.444244,211.005798 
	C115.259026,211.004074 117.629639,211.003860 120.210587,211.264648 
	C121.613953,211.350204 122.806976,211.174805 124.312454,211.114197 
	C127.415993,210.820145 130.207077,210.411301 132.998917,210.254257 
	C133.000381,210.673965 133.001114,210.841873 133.001831,211.009766 
z"/>
<path fill="#4237AB" opacity="1.000000" stroke="none" 
	d="
M188.123108,177.038605 
	C187.814819,179.119675 187.506531,181.200729 186.572479,183.640381 
	C178.020035,184.331802 170.093338,184.664658 162.166656,184.997513 
	C162.719772,182.892487 163.272873,180.787460 164.452713,178.341507 
	C172.760666,177.679932 180.441879,177.359268 188.123108,177.038605 
z"/>
<path fill="#0D89E1" opacity="1.000000" stroke="none" 
	d="
M110.998741,215.993134 
	C115.358803,215.661942 119.718857,215.330750 124.538391,214.998566 
	C143.660751,213.998367 162.323654,212.999161 181.410065,211.999542 
	C181.577393,212.486130 181.321213,212.973114 180.574158,213.729980 
	C178.722183,214.333450 177.361099,214.667023 175.571716,215.000763 
	C173.429764,215.001831 171.716095,215.002747 169.549164,215.002319 
	C165.730591,215.334244 162.365295,215.667480 158.583527,216.000885 
	C156.778793,216.001846 155.390549,216.002640 153.583618,216.002197 
	C151.109940,216.334183 149.054977,216.667389 146.539368,217.000763 
	C137.386841,217.335571 128.694931,217.670227 119.563309,218.003128 
	C116.415955,217.668365 113.708305,217.335358 111.000290,216.750031 
	C110.999535,216.329544 110.999138,216.161331 110.998741,215.993134 
z"/>
<path fill="#591394" opacity="1.000000" stroke="none" 
	d="
M55.091728,148.384201 
	C63.752480,147.665009 72.339439,147.332062 81.380157,146.998184 
	C81.478546,148.892044 81.123192,150.786850 79.967224,152.849762 
	C70.832703,153.344711 62.498791,153.671524 54.164883,153.998337 
	C54.449234,152.255707 54.733582,150.513092 55.091728,148.384201 
z"/>
<path fill="#4532A8" opacity="1.000000" stroke="none" 
	d="
M82.832787,179.998428 
	C83.530678,181.306244 84.228577,182.614075 84.396927,184.380066 
	C74.873444,185.573196 65.879509,186.308121 56.885567,187.043060 
	C56.264725,185.276154 55.643879,183.509247 55.546329,181.371063 
	C64.990677,180.665985 73.911736,180.332214 82.832787,179.998428 
z"/>
<path fill="#3E3EB0" opacity="1.000000" stroke="none" 
	d="
M162.095032,185.384827 
	C170.093338,184.664658 178.020035,184.331802 186.390045,183.998138 
	C186.552536,185.741104 186.271698,187.484863 185.458359,189.613831 
	C177.006058,190.331909 169.086258,190.664780 161.166473,190.997650 
	C161.452118,189.255814 161.737762,187.513962 162.095032,185.384827 
z"/>
<path fill="#561897" opacity="1.000000" stroke="none" 
	d="
M54.091991,154.407471 
	C62.498791,153.671524 70.832703,153.344711 79.641449,153.030823 
	C80.070145,154.423172 80.024002,155.802597 79.452103,157.590729 
	C70.576302,158.321259 62.226257,158.643036 53.876213,158.964813 
	C53.923843,157.582092 53.971474,156.199341 54.091991,154.407471 
z"/>
<path fill="#4237AB" opacity="1.000000" stroke="none" 
	d="
M56.934391,187.399109 
	C65.879509,186.308121 74.873444,185.573196 84.387329,184.761475 
	C85.878143,185.914780 86.848999,187.144867 87.827240,188.687469 
	C78.234596,189.666626 68.634575,190.333282 58.599960,190.999329 
	C57.771317,189.917542 57.377266,188.836365 56.934391,187.399109 
z"/>
<path fill="#4A2BA3" opacity="1.000000" stroke="none" 
	d="
M82.898544,179.643890 
	C73.911736,180.332214 64.990677,180.665985 55.617832,180.999390 
	C54.788086,179.901474 54.410133,178.803925 54.511059,177.341110 
	C63.698639,176.303345 72.407349,175.630844 81.116051,174.958344 
	C81.732132,176.402023 82.348213,177.845703 82.898544,179.643890 
z"/>
<path fill="#4F239E" opacity="1.000000" stroke="none" 
	d="
M166.276489,162.977264 
	C166.980835,162.222794 167.931137,161.144470 168.947113,161.078537 
	C176.265640,160.603592 183.597473,160.333817 191.378723,159.998260 
	C191.546799,161.415756 191.261230,162.833969 190.454498,164.625366 
	C182.011169,165.331390 174.088959,165.664215 166.166748,165.997040 
	C166.295456,165.038712 166.424164,164.080399 166.276489,162.977264 
z"/>
<path fill="#4B29A2" opacity="1.000000" stroke="none" 
	d="
M166.093689,166.369019 
	C174.088959,165.664215 182.011169,165.331390 190.383041,164.997559 
	C190.547195,166.415604 190.261673,167.834656 189.454391,169.626373 
	C181.010956,170.332077 173.089264,170.665100 165.167587,170.998108 
	C165.451920,169.579071 165.736267,168.160019 166.093689,166.369019 
z"/>
<path fill="#3945B4" opacity="1.000000" stroke="none" 
	d="
M161.094604,191.349899 
	C169.086258,190.664780 177.006058,190.331909 185.379425,189.998230 
	C185.550705,191.415344 185.268402,192.833282 184.452820,194.623566 
	C175.576752,195.315994 167.233963,195.636078 158.891159,195.956146 
	C159.601685,194.538147 160.312195,193.120148 161.094604,191.349899 
z"/>
<path fill="#4F239E" opacity="1.000000" stroke="none" 
	d="
M79.834335,165.999649 
	C79.894356,167.055130 79.954376,168.110596 79.673660,169.726868 
	C70.849861,170.873337 62.366802,171.459015 53.883739,172.044678 
	C53.596481,170.941193 53.309223,169.837708 53.523396,168.366913 
	C62.627998,167.332962 71.231171,166.666306 79.834335,165.999649 
z"/>
<path fill="#4B29A2" opacity="1.000000" stroke="none" 
	d="
M53.932495,172.456207 
	C62.366802,171.459015 70.849861,170.873337 79.723419,170.121307 
	C80.414803,171.365845 80.715698,172.776733 81.066322,174.572998 
	C72.407349,175.630844 63.698639,176.303345 54.577950,176.987793 
	C54.104389,175.622391 54.042820,174.245056 53.932495,172.456207 
z"/>
<path fill="#3945B4" opacity="1.000000" stroke="none" 
	d="
M62.116493,199.747452 
	C68.715042,198.933685 75.294136,198.547775 81.855888,197.966278 
	C85.435295,197.649094 88.985306,197.000351 92.800232,196.199677 
	C94.039841,197.332413 95.027786,198.766586 95.662613,200.591003 
	C93.540405,201.318695 91.771317,201.656113 89.720688,201.703903 
	C80.921249,201.624283 72.403358,201.834305 63.885475,202.044312 
	C63.286919,201.394135 62.688362,200.743958 62.116493,199.747452 
z"/>
<path fill="#521F9B" opacity="1.000000" stroke="none" 
	d="
M79.905869,165.603333 
	C71.231171,166.666306 62.627998,167.332962 53.595589,167.999390 
	C53.117928,166.929565 53.069511,165.859955 53.497063,164.332626 
	C62.593296,163.249603 71.213570,162.624313 79.833839,161.999023 
	C79.881699,163.068359 79.929558,164.137695 79.905869,165.603333 
z"/>
<path fill="#541B98" opacity="1.000000" stroke="none" 
	d="
M79.905426,161.602753 
	C71.213570,162.624313 62.593296,163.249603 53.569656,163.936462 
	C53.179810,162.450699 53.193333,160.903336 53.541534,159.160400 
	C62.226257,158.643036 70.576302,158.321259 79.380096,157.998947 
	C79.881569,159.067780 79.929291,160.137115 79.905426,161.602753 
z"/>
<path fill="#2D58C1" opacity="1.000000" stroke="none" 
	d="
M90.002235,201.993561 
	C91.771317,201.656113 93.540405,201.318695 95.707718,200.967560 
	C98.399483,201.696442 100.693024,202.439041 102.808006,203.680695 
	C102.420113,204.457016 102.210770,204.734283 101.669388,205.011108 
	C100.894638,205.011475 100.451927,205.012283 99.603760,205.008575 
	C97.465546,205.337234 95.732780,205.670410 93.550369,206.003860 
	C90.403534,206.007767 87.706345,206.011398 84.620674,206.009918 
	C82.821556,206.338135 81.410927,206.671463 79.584061,207.004639 
	C77.781105,207.006454 76.394363,207.008408 74.576225,207.006470 
	C72.151901,207.001343 70.158974,207.000092 68.166054,206.998840 
	C67.815041,206.533386 67.464027,206.067917 67.394089,205.157684 
	C69.779106,204.475296 71.885254,204.255554 73.986549,203.996521 
	C79.326271,203.338257 84.663818,202.662384 90.002235,201.993561 
z"/>
<path fill="#206CCE" opacity="1.000000" stroke="none" 
	d="
M82.998787,212.009109 
	C81.578514,212.336884 80.158234,212.664673 78.203308,212.752106 
	C77.113823,212.343002 76.558998,212.174240 75.592407,212.003937 
	C74.082756,212.016220 72.984871,212.030060 71.886978,212.043884 
	C71.611168,211.870346 71.335365,211.696823 71.238220,211.120697 
	C71.612000,210.146820 71.807114,209.575546 72.377090,209.003067 
	C73.501701,209.002350 74.251442,209.002823 75.284805,209.295105 
	C82.378944,209.057510 89.189468,208.528152 96.399742,207.998795 
	C97.865303,207.998383 98.931129,207.997971 100.441101,207.998535 
	C104.272919,207.296158 107.660583,206.592819 111.048248,205.889465 
	C112.946617,206.359833 114.844986,206.830200 116.594238,207.766434 
	C114.963318,208.823166 113.481506,209.414017 111.549988,210.004196 
	C108.402428,210.005402 105.704575,210.007278 102.587357,210.005981 
	C100.111404,210.338715 98.054802,210.674637 95.998199,211.010559 
	C95.250336,211.011429 94.502472,211.012299 92.963806,211.010132 
	C90.784233,211.007797 89.395477,211.008469 87.618271,211.006119 
	C85.819481,211.338440 84.409134,211.673782 82.998787,212.009109 
z"/>
<path fill="#4A2BA3" opacity="1.000000" stroke="none" 
	d="
M165.095459,171.345673 
	C173.089264,170.665100 181.010956,170.332077 189.382233,169.998535 
	C189.549118,171.096420 189.266418,172.194839 188.461273,173.645752 
	C180.015091,174.330963 172.091354,174.663651 164.167633,174.996338 
	C164.452850,173.895294 164.738083,172.794281 165.095459,171.345673 
z"/>
<path fill="#2760C6" opacity="1.000000" stroke="none" 
	d="
M183.834198,199.001434 
	C183.604080,199.469482 183.373962,199.937546 182.675995,200.696121 
	C173.817810,201.709686 165.418121,202.341797 157.042618,203.207993 
	C154.328918,203.488647 151.678665,204.382797 148.611572,204.996216 
	C147.448425,204.980469 146.673111,204.964828 145.897781,204.949173 
	C145.629883,201.109085 149.152603,201.338150 151.842621,200.250977 
	C153.761337,200.648605 155.063080,200.987595 156.337875,200.905975 
	C165.506393,200.318985 174.669418,199.646667 183.834198,199.001434 
z"/>
<path fill="#2268CB" opacity="1.000000" stroke="none" 
	d="
M148.999390,204.996338 
	C151.678665,204.382797 154.328918,203.488647 157.042618,203.207993 
	C165.418121,202.341797 173.817810,201.709686 182.665024,200.975479 
	C182.828979,201.754272 182.536026,202.544250 181.733887,203.659607 
	C170.483139,204.656158 159.741562,205.327316 149.000000,205.747955 
	C148.999802,205.330399 148.999588,205.163376 148.999390,204.996338 
z"/>
<path fill="#1C72D2" opacity="1.000000" stroke="none" 
	d="
M149.000000,205.998489 
	C159.741562,205.327316 170.483139,204.656158 181.671310,203.973358 
	C182.402802,204.747940 182.687683,205.534149 182.446625,206.659637 
	C171.280258,207.666351 160.639816,208.333786 149.701874,208.980637 
	C148.936356,208.641876 148.468353,208.323700 148.106415,207.745300 
	C148.474991,206.989548 148.737488,206.494019 149.000000,205.998489 
z"/>
<path fill="#4532A8" opacity="1.000000" stroke="none" 
	d="
M164.095398,175.368286 
	C172.091354,174.663651 180.015091,174.330963 188.385345,173.997253 
	C188.800171,174.902939 188.768448,175.809631 188.429916,176.877472 
	C180.441879,177.359268 172.760666,177.679932 164.622116,178.000351 
	C164.117584,177.246826 164.070374,176.493546 164.095398,175.368286 
z"/>
<path fill="#1878D6" opacity="1.000000" stroke="none" 
	d="
M149.999390,209.001221 
	C160.639816,208.333786 171.280258,207.666351 182.376953,206.998260 
	C182.291687,207.452835 181.750153,207.908035 181.162628,208.661041 
	C171.057190,209.307617 160.997742,209.656418 150.469116,209.754913 
	C149.999756,209.336792 149.999573,209.169006 149.999390,209.001221 
z"/>
<path fill="#1183DD" opacity="1.000000" stroke="none" 
	d="
M110.708054,215.698990 
	C110.999138,216.161331 110.999535,216.329544 110.600601,216.750000 
	C109.135498,217.003326 108.069733,217.004410 106.585068,217.003662 
	C104.110779,217.335251 102.055389,217.668655 99.562706,218.001999 
	C97.084793,218.002930 95.044174,218.003906 92.584732,218.003204 
	C90.110603,218.334564 88.055305,218.667587 85.625168,219.000748 
	C84.500694,219.001236 83.751038,219.001602 82.612091,219.001312 
	C81.444145,219.014694 80.665504,219.028763 79.886864,219.042816 
	C79.292686,218.557678 78.698502,218.072540 77.995888,217.315552 
	C87.093575,216.362259 96.297272,215.644150 105.508095,215.033798 
	C107.129204,214.926361 108.780182,215.269699 110.708054,215.698990 
z"/>
<path fill="#2D58C1" opacity="1.000000" stroke="none" 
	d="
M183.902344,198.669662 
	C174.669418,199.646667 165.506393,200.318985 156.337875,200.905975 
	C155.063080,200.987595 153.761337,200.648605 152.209778,200.198975 
	C153.037628,199.263596 154.127777,198.633560 156.027725,197.993713 
	C165.836029,197.655014 174.834534,197.326111 183.833038,196.997192 
	C183.878860,197.444107 183.924683,197.890991 183.902344,198.669662 
z"/>
<path fill="#1C72D2" opacity="1.000000" stroke="none" 
	d="
M111.999695,210.004883 
	C113.481506,209.414017 114.963318,208.823166 116.775024,208.090698 
	C122.094040,207.627106 127.083160,207.305099 132.662781,207.195984 
	C133.835968,207.937424 134.418686,208.465942 134.834717,209.241241 
	C134.111404,209.659500 133.554779,209.830963 132.998169,210.002441 
	C130.207077,210.411301 127.415993,210.820145 124.102409,210.852661 
	C122.386688,210.652100 121.193474,210.827881 120.000252,211.003662 
	C117.629639,211.003860 115.259026,211.004074 112.443909,210.755142 
	C111.999504,210.338974 111.999596,210.171921 111.999695,210.004883 
z"/>
<path fill="#334EBA" opacity="1.000000" stroke="none" 
	d="
M183.949432,196.726532 
	C174.834534,197.326111 165.836029,197.655014 156.361572,197.970856 
	C156.671204,197.306259 157.456802,196.654739 158.566772,195.979675 
	C167.233963,195.636078 175.576752,195.315994 184.375183,194.993973 
	C184.575806,195.479980 184.320816,195.967926 183.949432,196.726532 
z"/>
<path fill="#334EBA" opacity="1.000000" stroke="none" 
	d="
M89.720688,201.703918 
	C84.663818,202.662384 79.326271,203.338257 73.986549,203.996521 
	C71.885254,204.255554 69.779106,204.475296 67.285126,204.882797 
	C65.927986,204.278351 64.960884,203.504028 63.939625,202.387009 
	C72.403358,201.834305 80.921249,201.624283 89.720688,201.703918 
z"/>
<path fill="#206CCE" opacity="1.000000" stroke="none" 
	d="
M135.001404,208.994461 
	C134.418686,208.465942 133.835968,207.937424 133.103210,207.149979 
	C137.034851,206.160797 141.116562,205.430527 145.548035,204.824707 
	C146.673111,204.964828 147.448425,204.980469 148.611572,204.996216 
	C148.999588,205.163376 148.999802,205.330399 149.000000,205.747955 
	C148.737488,206.494019 148.474991,206.989548 147.706848,207.744965 
	C146.136108,208.008667 145.070999,208.012466 143.582565,208.011932 
	C140.439957,208.336533 137.720688,208.665497 135.001404,208.994461 
z"/>
<path fill="#0792E7" opacity="1.000000" stroke="none" 
	d="
M103.001831,221.001831 
	C101.575333,221.667770 100.209183,222.585892 98.709221,222.944839 
	C95.958443,223.603165 93.128731,223.931625 90.140656,224.751953 
	C88.358101,224.294495 86.766815,223.482712 85.380066,222.343597 
	C86.389626,221.676682 87.194649,221.337128 88.368927,220.993790 
	C90.158798,220.660629 91.579399,220.331223 93.284164,220.294098 
	C96.712830,220.724838 99.857330,220.863327 103.001831,221.001831 
z"/>
<path fill="#0792E7" opacity="1.000000" stroke="none" 
	d="
M170.002441,215.003662 
	C171.716095,215.002747 173.429764,215.001831 175.809387,215.275238 
	C177.928162,215.699661 179.380981,215.849747 180.833786,215.999832 
	C180.872360,216.170883 180.910950,216.341934 180.891479,216.769562 
	C177.408173,217.210770 173.982941,217.395432 170.278992,216.957687 
	C170.001007,215.891403 170.001724,215.447540 170.002441,215.003662 
z"/>
<path fill="#2268CB" opacity="1.000000" stroke="none" 
	d="
M110.889450,205.587128 
	C107.660583,206.592819 104.272919,207.296158 100.442200,207.625366 
	C100.002502,206.505173 100.005859,205.759140 100.009216,205.013092 
	C100.451927,205.012283 100.894638,205.011475 101.919693,205.286987 
	C104.351044,205.339325 106.200050,205.115341 108.049065,204.891342 
	C108.942924,205.022476 109.836792,205.153625 110.889450,205.587128 
z"/>
<path fill="#2760C6" opacity="1.000000" stroke="none" 
	d="
M75.001190,209.003311 
	C74.251442,209.002823 73.501701,209.002350 71.987579,209.002090 
	C70.444534,209.016724 69.665878,209.031128 68.887215,209.045532 
	C68.601494,208.565918 68.315773,208.086288 68.098053,207.302765 
	C70.158974,207.000092 72.151901,207.001343 74.574097,207.338470 
	C75.002640,208.117340 75.001915,208.560318 75.001190,209.003311 
z"/>
<path fill="#0A8DE4" opacity="1.000000" stroke="none" 
	d="
M87.999664,220.997559 
	C87.194649,221.337128 86.389626,221.676682 85.235420,222.029587 
	C84.321510,221.914352 83.756798,221.785782 83.089371,221.033844 
	C82.991570,219.940964 82.996475,219.471481 83.001389,219.001984 
	C83.751038,219.001602 84.500694,219.001236 85.778687,219.244629 
	C86.871239,219.991455 87.435448,220.494507 87.999664,220.997559 
z"/>
<path fill="#2760C6" opacity="1.000000" stroke="none" 
	d="
M107.854050,204.564987 
	C106.200050,205.115341 104.351044,205.339325 102.251724,205.287415 
	C102.210770,204.734283 102.420113,204.457016 102.867783,204.065598 
	C104.623756,204.047180 106.141388,204.142899 107.854050,204.564987 
z"/>
<path fill="#0A8DE4" opacity="1.000000" stroke="none" 
	d="
M180.902161,215.668823 
	C179.380981,215.849747 177.928162,215.699661 176.237671,215.275085 
	C177.361099,214.667023 178.722183,214.333450 180.458374,213.999786 
	C180.879150,214.445755 180.924835,214.891769 180.902161,215.668823 
z"/>
<path fill="#1C72D2" opacity="1.000000" stroke="none" 
	d="
M72.050125,212.378235 
	C72.984871,212.030060 74.082756,212.016220 75.560349,212.562759 
	C75.860992,213.873825 75.781937,214.624527 75.702881,215.375229 
	C74.539673,214.487686 73.376472,213.600143 72.050125,212.378235 
z"/>
<path fill="#1878D6" opacity="1.000000" stroke="none" 
	d="
M75.725761,215.397018 
	C75.781937,214.624527 75.860992,213.873825 75.972107,212.564301 
	C76.558998,212.174240 77.113823,212.343002 77.834290,212.758011 
	C77.452522,213.690475 76.905113,214.376678 76.058319,215.272018 
	C75.758942,215.481155 75.748642,215.418808 75.725761,215.397018 
z"/>
<path fill="#0D89E1" opacity="1.000000" stroke="none" 
	d="
M82.612083,219.001312 
	C82.996475,219.471481 82.991570,219.940964 82.972351,220.762421 
	C82.023277,220.625488 81.088501,220.136581 80.020294,219.345245 
	C80.665504,219.028763 81.444145,219.014694 82.612083,219.001312 
z"/>
<path fill="#2268CB" opacity="1.000000" stroke="none" 
	d="
M68.996048,209.317841 
	C69.665878,209.031128 70.444534,209.016724 71.612717,209.003296 
	C71.807114,209.575546 71.612000,210.146820 71.154495,210.882858 
	C70.296364,210.561798 69.700615,210.075974 68.996048,209.317841 
z"/>
<path fill="#0792E7" opacity="1.000000" stroke="none" 
	d="
M154.002304,216.003418 
	C155.390549,216.002640 156.778793,216.001846 158.863647,216.291595 
	C162.373917,216.721817 165.187576,216.861511 168.001221,217.001221 
	C167.043686,217.665451 166.117050,218.856064 165.123917,218.914383 
	C151.717758,219.701645 138.304108,220.369553 124.888512,220.983643 
	C118.458511,221.277969 112.020477,221.396576 105.292923,221.047272 
	C104.999664,220.332245 104.999565,220.164719 105.332565,219.997742 
	C106.109726,219.998047 106.553795,219.997787 107.460617,219.998413 
	C110.368309,219.999481 112.846542,220.243362 115.246666,219.915421 
	C116.888481,219.691116 118.421410,218.669861 120.003014,218.004883 
	C128.694931,217.670227 137.386841,217.335571 146.800507,217.282471 
	C149.682266,217.043823 151.842285,216.523621 154.002304,216.003418 
z"/>
<path fill="#0A8DE4" opacity="1.000000" stroke="none" 
	d="
M104.999474,219.997223 
	C104.999565,220.164719 104.999664,220.332245 104.999886,220.751114 
	C104.555946,221.002090 104.111885,221.001740 103.334831,221.001602 
	C99.857330,220.863327 96.712830,220.724838 93.284378,219.961212 
	C93.001465,218.892334 93.002510,218.448608 93.003555,218.004883 
	C95.044174,218.003906 97.084793,218.002930 99.792404,218.271179 
	C101.972755,219.026001 103.486115,219.511612 104.999474,219.997223 
z"/>
<path fill="#0A8DE4" opacity="1.000000" stroke="none" 
	d="
M168.334351,217.001038 
	C165.187576,216.861511 162.373917,216.721817 159.280136,216.291412 
	C162.365295,215.667480 165.730591,215.334244 169.549164,215.002319 
	C170.001724,215.447540 170.001007,215.891403 170.000153,216.668243 
	C169.555817,217.001114 169.111649,217.000992 168.334351,217.001038 
z"/>
<path fill="#1878D6" opacity="1.000000" stroke="none" 
	d="
M134.834717,209.241241 
	C137.720688,208.665497 140.439957,208.336533 143.581055,208.409470 
	C144.000885,209.872818 143.998917,210.934280 143.996948,211.995728 
	C140.615982,211.665543 137.235031,211.335373 133.427948,211.007477 
	C133.001114,210.841873 133.000381,210.673965 132.998917,210.254242 
	C133.554779,209.830963 134.111404,209.659500 134.834717,209.241241 
z"/>
<path fill="#157CD9" opacity="1.000000" stroke="none" 
	d="
M144.407410,211.997238 
	C143.998917,210.934280 144.000885,209.872818 144.004364,208.413818 
	C145.070999,208.012466 146.136108,208.008667 147.600769,208.005188 
	C148.468353,208.323700 148.936356,208.641876 149.701874,208.980637 
	C149.999573,209.169006 149.999756,209.336792 150.000549,209.756378 
	C148.273361,210.671692 146.545593,211.335220 144.407410,211.997238 
z"/>
<path fill="#1878D6" opacity="1.000000" stroke="none" 
	d="
M111.549988,210.004211 
	C111.999596,210.171921 111.999504,210.338974 111.999741,210.756668 
	C109.294624,211.671021 106.589157,212.334702 103.441086,212.623718 
	C103.001228,211.502426 103.003975,210.755783 103.006714,210.009155 
	C105.704575,210.007278 108.402428,210.005402 111.549988,210.004211 
z"/>
<path fill="#1C72D2" opacity="1.000000" stroke="none" 
	d="
M102.587357,210.005981 
	C103.003975,210.755783 103.001228,211.502426 102.997253,212.622391 
	C100.812698,212.526413 98.629372,212.057114 96.222122,211.299179 
	C98.054802,210.674637 100.111404,210.338715 102.587357,210.005981 
z"/>
<path fill="#1878D6" opacity="1.000000" stroke="none" 
	d="
M88.006714,211.009155 
	C89.395477,211.008469 90.784233,211.007797 92.589890,211.013535 
	C93.060692,214.641525 90.890701,214.301270 88.246582,212.945953 
	C88.002823,211.894928 88.004768,211.452042 88.006714,211.009155 
z"/>
<path fill="#1C72D2" opacity="1.000000" stroke="none" 
	d="
M87.618271,211.006134 
	C88.004768,211.452042 88.002823,211.894928 88.000443,212.670135 
	C86.499458,212.856445 84.998917,212.710449 83.248581,212.286789 
	C84.409134,211.673782 85.819481,211.338440 87.618271,211.006134 
z"/>
<path fill="#1878D6" opacity="1.000000" stroke="none" 
	d="
M120.210587,211.264648 
	C121.193474,210.827881 122.386688,210.652100 123.789955,210.737854 
	C122.806976,211.174805 121.613953,211.350204 120.210587,211.264648 
z"/>
<path fill="#0A8DE4" opacity="1.000000" stroke="none" 
	d="
M119.563309,218.003128 
	C118.421410,218.669861 116.888481,219.691116 115.246666,219.915421 
	C112.846542,220.243362 110.368309,219.999481 107.461220,219.624405 
	C107.000710,218.501511 107.002335,217.753494 107.003967,217.005493 
	C108.069733,217.004410 109.135498,217.003326 110.600952,217.002289 
	C113.708305,217.335358 116.415955,217.668365 119.563309,218.003128 
z"/>
<path fill="#0A8DE4" opacity="1.000000" stroke="none" 
	d="
M153.583618,216.002197 
	C151.842285,216.523621 149.682266,217.043823 147.261124,217.282318 
	C149.054977,216.667389 151.109940,216.334183 153.583618,216.002197 
z"/>
<path fill="#2268CB" opacity="1.000000" stroke="none" 
	d="
M75.284805,209.295105 
	C75.001915,208.560318 75.002640,208.117340 75.005493,207.342346 
	C76.394363,207.008408 77.781105,207.006454 79.821548,207.276062 
	C81.986557,207.036758 83.497856,206.525894 85.009155,206.015015 
	C87.706345,206.011398 90.403534,206.007767 93.703880,206.247574 
	C94.871361,206.993607 95.435677,207.496201 96.000000,207.998795 
	C89.189468,208.528152 82.378944,209.057510 75.284805,209.295105 
z"/>
<path fill="#2760C6" opacity="1.000000" stroke="none" 
	d="
M96.399734,207.998795 
	C95.435677,207.496201 94.871361,206.993607 94.153526,206.247299 
	C95.732780,205.670410 97.465546,205.337234 99.603760,205.008575 
	C100.005859,205.759140 100.002502,206.505173 99.998047,207.624390 
	C98.931129,207.997971 97.865303,207.998383 96.399734,207.998795 
z"/>
<path fill="#2760C6" opacity="1.000000" stroke="none" 
	d="
M84.620674,206.009918 
	C83.497856,206.525894 81.986557,207.036758 80.237778,207.276199 
	C81.410927,206.671463 82.821556,206.338135 84.620674,206.009918 
z"/>
<path fill="#0D89E1" opacity="1.000000" stroke="none" 
	d="
M92.584732,218.003204 
	C93.002510,218.448608 93.001465,218.892334 93.000214,219.668945 
	C91.579399,220.331223 90.158798,220.660629 88.368927,220.993790 
	C87.435448,220.494507 86.871239,219.991455 86.153519,219.244507 
	C88.055305,218.667587 90.110603,218.334564 92.584732,218.003204 
z"/>
<path fill="#0D89E1" opacity="1.000000" stroke="none" 
	d="
M106.585068,217.003662 
	C107.002335,217.753494 107.000710,218.501511 106.998474,219.623535 
	C106.553795,219.997787 106.109726,219.998047 105.332565,219.997757 
	C103.486115,219.511612 101.972755,219.026001 100.229698,218.271210 
	C102.055389,217.668655 104.110779,217.335251 106.585068,217.003662 
z"/>
</svg>